# xmcd
# 
# Track frame offsets:
#     150
#     10983
#     24296
#     37990
#     48810
#     60679
#     74296
#     86571
#     97088
#     107740
#     117380
#     128294
#     140172
#     149556
#     161382
#     173461
#     184960
#     199810
#     212569
#     225745
#     236095
#     248409
#     260876
# 
# Disc length: 3657
# 
# Revision: 1
# Processed by: cddbd v1.5.2PL0 Copyright (c) Steve Scherf et al.
# Submitted via: BonkEnc v1.0.15
# 
DISCID=400e4717
DTITLE=Slágerek a hatvanas évekbõl - Ez az én bulim
DYEAR=0
DGENRE=
TTITLE0=Let's Twist Again
TTITLE1=La bamba
TTITLE2=If I Had A Hammer
TTITLE3=Puppet On A String
TTITLE4=To Whom It Concern
TTITLE5=Yellow Submarine
TTITLE6=Alley Oop
TTITLE7=Cradle Of Love
TTITLE8=Da Doo Ron Ron
TTITLE9=Dynamite
TTITLE10=Hello Josephine
TTITLE11=The Twist
TTITLE12=Peppermint Twist
TTITLE13=Running Bear
TTITLE14=Long Live Love
TTITLE15=Yesterday Man
TTITLE16=From The Underworld
TTITLE17=With A Little Help From My Friends
TTITLE18=Happy Toghether
TTITLE19=It'S My Party
TTITLE20=Love's Made a Fool Of You
TTITLE21=There's Always Something There To Remind Me
TTITLE22=Stand By Me
EXTD=
EXTT0=
EXTT1=
EXTT2=
EXTT3=
EXTT4=
EXTT5=
EXTT6=
EXTT7=
EXTT8=
EXTT9=
EXTT10=
EXTT11=
EXTT12=
EXTT13=
EXTT14=
EXTT15=
EXTT16=
EXTT17=
EXTT18=
EXTT19=
EXTT20=
EXTT21=
EXTT22=
PLAYORDER=
